HIERARCHY
ROOT hip
{
  OFFSET 0.00112043 5.09927 -9.65472
  CHANNELS 6 Xposition Yposition Zposition Zrotation Xrotation Yrotation
  JOINT abdomen
  {
    OFFSET 0 -1.186 -1.5018
    CHANNELS 3 Zrotation Xrotation Yrotation
    JOINT abdomen2
    {
      OFFSET 0 9.964 0.2134
      CHANNELS 3 Zrotation Xrotation Yrotation
      JOINT chest
      {
        OFFSET 0 13.134 -3.2573
        CHANNELS 3 Zrotation Xrotation Yrotation
        JOINT neck
        {
          OFFSET 0 20.686 -1.6905
          CHANNELS 3 Zrotation Xrotation Yrotation
          JOINT head
          {
            OFFSET 0 7.238 -0.1237
            CHANNELS 3 Zrotation Xrotation Yrotation
            End Site
            {
              OFFSET 0 0 0
            }
          }
        }
        JOINT lCollar
        {
          OFFSET 1.7069 20.075 5.0056
          CHANNELS 3 Zrotation Xrotation Yrotation
          JOINT lShldr
          {
            OFFSET 13.6458 -0.047 -4.849
            CHANNELS 3 Zrotation Xrotation Yrotation
            JOINT lForeArm
            {
              OFFSET 28.3255 -0.9759 2.2888
              CHANNELS 3 Zrotation Xrotation Yrotation
              JOINT lHand
              {
                OFFSET 22.1583 -0.53 10.8316
                CHANNELS 3 Zrotation Xrotation Yrotation
                JOINT lThumb1
                {
                  OFFSET 0.786 0.112 2.5817
                  CHANNELS 3 Zrotation Xrotation Yrotation
                  JOINT lThumb2
                  {
                    OFFSET 0.3601 -0.878 4.2331
                    CHANNELS 3 Zrotation Xrotation Yrotation
                    JOINT lThumb2_End
                    {
                      OFFSET 1.8127 -1.216 2.2227
                      CHANNELS 3 Zrotation Xrotation Yrotation
                      End Site
                      {
                        OFFSET 0.0181 -0.0122 0.0222
                      }
                    }
                  }
                }
                JOINT lCarpal1
                {
                  OFFSET 0.9571 1.114 1.7695
                  CHANNELS 3 Zrotation Xrotation Yrotation
                  JOINT lIndex1
                  {
                    OFFSET 4.1246 0.487 4.1451
                    CHANNELS 3 Zrotation Xrotation Yrotation
                    JOINT lIndex2
                    {
                      OFFSET 3.4052 -1.454 2.7682
                      CHANNELS 3 Zrotation Xrotation Yrotation
                      JOINT lIndex2_End
                      {
                        OFFSET 1.4531 -1.795 1.2713
                        CHANNELS 3 Zrotation Xrotation Yrotation
                        End Site
                        {
                          OFFSET 0.0145 -0.0179 0.0127
                        }
                      }
                    }
                  }
                  JOINT lMid1
                  {
                    OFFSET 5.6954 0.21 2.1184
                    CHANNELS 3 Zrotation Xrotation Yrotation
                    JOINT lMid2
                    {
                      OFFSET 3.9766 -1.54 2.3863
                      CHANNELS 3 Zrotation Xrotation Yrotation
                      JOINT lMid2_End
                      {
                        OFFSET 1.4042 -1.926 1.125
                        CHANNELS 3 Zrotation Xrotation Yrotation
                        End Site
                        {
                          OFFSET 0.014 -0.0193 0.0113
                        }
                      }
                    }
                  }
                }
                JOINT lCarpal2
                {
                  OFFSET 2.0956 0.66 -0.3894
                  CHANNELS 3 Zrotation Xrotation Yrotation
                  JOINT lRing1
                  {
                    OFFSET 5.0395 -0.09 2.4971
                    CHANNELS 3 Zrotation Xrotation Yrotation
                    JOINT lRing2
                    {
                      OFFSET 3.7921 -1.552 1.4806
                      CHANNELS 3 Zrotation Xrotation Yrotation
                      JOINT lRing2_End
                      {
                        OFFSET 1.4655 -1.808 0.9609
                        CHANNELS 3 Zrotation Xrotation Yrotation
                        End Site
                        {
                          OFFSET 0.0147 -0.0181 0.0096
                        }
                      }
                    }
                  }
                  JOINT lPinky1
                  {
                    OFFSET 4.9141 -1.269 0.3591
                    CHANNELS 3 Zrotation Xrotation Yrotation
                    JOINT lPinky2
                    {
                      OFFSET 3.1477 -1.685 0.8462
                      CHANNELS 3 Zrotation Xrotation Yrotation
                      JOINT lPinky2_End
                      {
                        OFFSET 0.8055 -1.585 0.7955
                        CHANNELS 3 Zrotation Xrotation Yrotation
                        End Site
                        {
                          OFFSET 0.0081 -0.0158 0.008
                        }
                      }
                    }
                  }
                }
              }
            }
          }
        }
        JOINT rCollar
        {
          OFFSET -1.7069 20.075 5.0056
          CHANNELS 3 Zrotation Xrotation Yrotation
          JOINT rShldr
          {
            OFFSET -13.6458 -0.047 -4.849
            CHANNELS 3 Zrotation Xrotation Yrotation
            JOINT rForeArm
            {
              OFFSET -28.3255 -0.9759 2.2888
              CHANNELS 3 Zrotation Xrotation Yrotation
              JOINT rHand
              {
                OFFSET -22.1583 -0.53 10.8316
                CHANNELS 3 Zrotation Xrotation Yrotation
                JOINT rThumb1
                {
                  OFFSET -0.786 0.112 2.5817
                  CHANNELS 3 Zrotation Xrotation Yrotation
                  JOINT rThumb2
                  {
                    OFFSET -0.3601 -0.878 4.2331
                    CHANNELS 3 Zrotation Xrotation Yrotation
                    JOINT rThumb2_End
                    {
                      OFFSET -1.8127 -1.216 2.2227
                      CHANNELS 3 Zrotation Xrotation Yrotation
                      End Site
                      {
                        OFFSET -0.0181 -0.0122 0.0222
                      }
                    }
                  }
                }
                JOINT rCarpal1
                {
                  OFFSET -0.9571 1.114 1.7695
                  CHANNELS 3 Zrotation Xrotation Yrotation
                  JOINT rIndex1
                  {
                    OFFSET -4.1246 0.487 4.1451
                    CHANNELS 3 Zrotation Xrotation Yrotation
                    JOINT rIndex2
                    {
                      OFFSET -3.4052 -1.454 2.7682
                      CHANNELS 3 Zrotation Xrotation Yrotation
                      JOINT rIndex2_End
                      {
                        OFFSET -1.4531 -1.795 1.2713
                        CHANNELS 3 Zrotation Xrotation Yrotation
                        End Site
                        {
                          OFFSET -0.0145 -0.018 0.0127
                        }
                      }
                    }
                  }
                  JOINT rMid1
                  {
                    OFFSET -5.6954 0.21 2.1184
                    CHANNELS 3 Zrotation Xrotation Yrotation
                    JOINT rMid2
                    {
                      OFFSET -3.9766 -1.54 2.3863
                      CHANNELS 3 Zrotation Xrotation Yrotation
                      JOINT rMid2_End
                      {
                        OFFSET -1.4042 -1.926 1.125
                        CHANNELS 3 Zrotation Xrotation Yrotation
                        End Site
                        {
                          OFFSET -0.014 -0.0193 0.0113
                        }
                      }
                    }
                  }
                }
                JOINT rCarpal2
                {
                  OFFSET -2.0956 0.66 -0.3894
                  CHANNELS 3 Zrotation Xrotation Yrotation
                  JOINT rRing1
                  {
                    OFFSET -5.0395 -0.09 2.4971
                    CHANNELS 3 Zrotation Xrotation Yrotation
                    JOINT rRing2
                    {
                      OFFSET -3.7921 -1.552 1.4806
                      CHANNELS 3 Zrotation Xrotation Yrotation
                      JOINT rRing2_End
                      {
                        OFFSET -1.4655 -1.808 0.9609
                        CHANNELS 3 Zrotation Xrotation Yrotation
                        End Site
                        {
                          OFFSET -0.0147 -0.0181 0.0096
                        }
                      }
                    }
                  }
                  JOINT rPinky1
                  {
                    OFFSET -4.9141 -1.269 0.3592
                    CHANNELS 3 Zrotation Xrotation Yrotation
                    JOINT rPinky2
                    {
                      OFFSET -3.1477 -1.685 0.8462
                      CHANNELS 3 Zrotation Xrotation Yrotation
                      JOINT rPinky2_End
                      {
                        OFFSET -0.8055 -1.585 0.7955
                        CHANNELS 3 Zrotation Xrotation Yrotation
                        End Site
                        {
                          OFFSET -0.0081 -0.0158 0.008
                        }
                      }
                    }
                  }
                }
              }
            }
          }
        }
      }
    }
  }
  JOINT lThigh
  {
    OFFSET 8.367 -8.2066 0.5982
    CHANNELS 3 Zrotation Xrotation Yrotation
    JOINT lShin
    {
      OFFSET 2.1923 -43.463 -0.4932
      CHANNELS 3 Zrotation Xrotation Yrotation
      JOINT lFoot
      {
        OFFSET 0.7333 -45.8593 -2.6451
        CHANNELS 3 Zrotation Xrotation Yrotation
        End Site
        {
          OFFSET 2.6618 -4.2699 12.3931
        }
      }
    }
  }
  JOINT rThigh
  {
    OFFSET -8.367 -8.2066 0.5982
    CHANNELS 3 Zrotation Xrotation Yrotation
    JOINT rShin
    {
      OFFSET -2.1923 -43.463 -0.4931
      CHANNELS 3 Zrotation Xrotation Yrotation
      JOINT rFoot
      {
        OFFSET -0.7333 -45.8593 -2.6451
        CHANNELS 3 Zrotation Xrotation Yrotation
        End Site
        {
          OFFSET -2.6618 -4.2699 12.3931
        }
      }
    }
  }
}
MOTION
Frames:	6
Frame Time:	0.0333333
0 91.7903 2.51682 0 0 -0 0 0 -0 0 0 -0 0 0 -0 0 0 -0 0 0 -0 0 0 -0 1.66051 0.0835086 5.75766 -0.0175111 0.895433 15.7816 7.95139e-016 -1.98785e-016 -0 5.46658e-016 -3.97569e-016 -0 5.96354e-016 0 -0 3.97569e-016 1.98785e-016 9.54166e-015 1.49089e-016 -3.97569e-016 -0 6.4605e-016 0 3.18055e-015 5.96354e-016 0 3.18055e-015 8.94531e-016 -1.98785e-016 6.36111e-015 6.4605e-016 0 3.18055e-015 5.96354e-016 0 3.18055e-015 8.94531e-016 -1.98785e-016 6.36111e-015 1.49089e-016 -3.97569e-016 -0 6.4605e-016 0 3.18055e-015 5.96354e-016 0 3.18055e-015 8.94531e-016 -1.98785e-016 6.36111e-015 6.4605e-016 0 3.18055e-015 5.96354e-016 0 3.18055e-015 8.94531e-016 -1.98785e-016 6.36111e-015 0 0 -0 -1.4496 0.0636048 -5.0245 -1.74811 1.20616 -16.8394 -1.19271e-015 1.98785e-016 -3.18055e-015 -3.97569e-016 1.98785e-016 -3.18055e-015 -2.98177e-016 1.98785e-016 -3.18055e-015 -2.98177e-016 3.97569e-016 -0 4.96962e-016 0 -6.36111e-015 -9.93923e-017 3.97569e-016 -0 -8.94531e-016 5.96354e-016 -0 -3.97569e-016 3.97569e-016 -0 -9.93923e-017 3.97569e-016 -0 -8.94531e-016 5.96354e-016 -0 -3.97569e-016 3.97569e-016 -0 4.96962e-016 0 -6.36111e-015 -9.93923e-017 3.97569e-016 -0 -8.94531e-016 5.96354e-016 -0 -3.97569e-016 3.97569e-016 -0 -9.93923e-017 3.97569e-016 -0 -8.94531e-016 5.96354e-016 -0 -3.97569e-016 3.97569e-016 -0 -4.66111 -0.998717 0.12318 0.00986924 1.54847 0.176523 4.65186 -0.572283 -0.254274 4.66111 -0.998765 -0.123176 -0.00986867 1.54869 -0.176537 -4.65186 -0.572453 0.25427 
17.2487 -7.24327 7.92768 -180 -64.9956 -180 0 20.7994 -0 0 41.5988 -0 0 41.5988 -0 0 30.9997 -0 -0 -35.0004 -0 0 1.59028e-015 -0 -74.353 0.227802 10.7524 -0.601318 -1.41206 -65.1954 23.4734 -8.8385 2.27096 3.18055e-015 0 3.18055e-015 -1.63185e-006 1.31014e-006 -2.51754e-006 1.21625e-006 1.23453e-007 4.0788e-006 3.18055e-015 0 3.18055e-015 6.36111e-015 -6.36111e-015 6.36111e-015 -1.63185e-006 1.31014e-006 -2.51754e-006 1.21625e-006 1.23453e-007 4.0788e-006 6.36111e-015 -6.36111e-015 6.36111e-015 -1.63185e-006 1.31014e-006 -2.51754e-006 1.21625e-006 1.23453e-007 4.0788e-006 3.18055e-015 0 3.18055e-015 6.36111e-015 -6.36111e-015 6.36111e-015 -1.63185e-006 1.31014e-006 -2.51754e-006 1.21625e-006 1.23453e-007 4.0788e-006 6.36111e-015 -6.36111e-015 6.36111e-015 -1.63185e-006 1.31014e-006 -2.51754e-006 1.21625e-006 1.23453e-007 4.0788e-006 8.25996 3.72199 17.8076 47.1052 15.8939 53.0407 2.8623 2.79901 -10.7784 39.1691 16.5901 -24.0708 -8.82781e-032 6.36111e-015 7.95139e-016 0 3.18055e-015 -0 -1.59028e-015 7.95139e-015 -0 1.59028e-015 3.18055e-015 7.95139e-016 -3.31043e-032 4.77083e-015 3.97569e-016 0 7.95139e-015 -0 -4.77083e-015 7.95139e-015 -0 -3.31043e-032 4.77083e-015 3.97569e-016 0 7.95139e-015 -0 -4.77083e-015 7.95139e-015 -0 1.59028e-015 3.18055e-015 7.95139e-016 -3.31043e-032 4.77083e-015 3.97569e-016 0 7.95139e-015 -0 -4.77083e-015 7.95139e-015 -0 -3.31043e-032 4.77083e-015 3.97569e-016 0 7.95139e-015 -0 -4.77083e-015 7.95139e-015 -0 52.0766 -44.2775 26.7484 178.733 42.6317 -168.351 6.22523 13.4176 6.22437 -66.6882 -41.6331 -38.1365 -178.826 48.8827 170.321 -4.90489 29.8743 -4.38101 
17.2287 -7.21859 7.40195 -180 -64.9956 -180 0 20.7994 -0 0 41.5988 -0 0 41.5988 -0 0 30.9998 -0 -0 -35.9591 -0 0 3.39935e-006 -0 -74.353 0.227803 10.7524 -0.60133 -1.41207 -65.1954 23.4734 -8.8385 2.27096 3.18055e-015 -4.77083e-015 3.18055e-015 -0 -3.18055e-015 -0 -0 -3.18055e-015 -0 6.36111e-015 1.59028e-015 -0 -3.18055e-015 -7.95139e-015 3.18055e-015 -3.18055e-015 -4.77083e-015 6.36111e-015 3.53113e-031 -3.18055e-015 6.36111e-015 -3.18055e-015 -7.95139e-015 3.18055e-015 -3.18055e-015 -4.77083e-015 6.36111e-015 3.53113e-031 -3.18055e-015 6.36111e-015 6.36111e-015 1.59028e-015 -0 -3.18055e-015 -7.95139e-015 3.18055e-015 -3.18055e-015 -4.77083e-015 6.36111e-015 3.53113e-031 -3.18055e-015 6.36111e-015 -3.18055e-015 -7.95139e-015 3.18055e-015 -3.18055e-015 -4.77083e-015 6.36111e-015 3.53113e-031 -3.18055e-015 6.36111e-015 7.95518 3.58083 17.786 47.0107 15.7318 53.3867 2.86229 2.79902 -10.7784 37.7203 15.1211 -22.8951 -1.59028e-015 0 -0 -1.59028e-015 -6.36111e-015 -0 -1.59028e-015 -6.36111e-015 -0 -1.59028e-015 3.18055e-015 -0 -4.77083e-015 -6.36111e-015 7.95139e-016 -1.59028e-015 0 -7.95139e-016 -1.59028e-015 -3.18055e-015 -1.59028e-015 -4.77083e-015 -6.36111e-015 7.95139e-016 -1.59028e-015 0 -7.95139e-016 -1.59028e-015 -3.18055e-015 -1.59028e-015 -1.59028e-015 3.18055e-015 -0 -4.77083e-015 -6.36111e-015 7.95139e-016 -1.59028e-015 0 -7.95139e-016 -1.59028e-015 -3.18055e-015 -1.59028e-015 -4.77083e-015 -6.36111e-015 7.95139e-016 -1.59028e-015 0 -7.95139e-016 -1.59028e-015 -3.18055e-015 -1.59028e-015 50.8834 -43.958 25.2462 178.743 43.7682 -168.628 6.2171 13.0994 6.05056 -65.0123 -41.509 -36.2843 -178.822 49.7653 170.372 -4.99534 29.6661 -4.31421 
17.2089 -7.19538 6.87665 -180 -64.9956 -180 0 20.7994 -0 0 41.5988 -0 0 41.5988 -0 0 30.9997 -0 -0 -36.9201 -0 0 3.39935e-006 -0 -74.353 0.227803 10.7524 -0.60133 -1.41207 -65.1954 23.4734 -8.8385 2.27096 3.18055e-015 -4.77083e-015 3.18055e-015 -0 -3.18055e-015 -0 -0 -3.18055e-015 -0 6.36111e-015 1.59028e-015 -0 -3.18055e-015 -7.95139e-015 3.18055e-015 -3.18055e-015 -4.77083e-015 6.36111e-015 3.53113e-031 -3.18055e-015 6.36111e-015 -3.18055e-015 -7.95139e-015 3.18055e-015 -3.18055e-015 -4.77083e-015 6.36111e-015 3.53113e-031 -3.18055e-015 6.36111e-015 6.36111e-015 1.59028e-015 -0 -3.18055e-015 -7.95139e-015 3.18055e-015 -3.18055e-015 -4.77083e-015 6.36111e-015 3.53113e-031 -3.18055e-015 6.36111e-015 -3.18055e-015 -7.95139e-015 3.18055e-015 -3.18055e-015 -4.77083e-015 6.36111e-015 3.53113e-031 -3.18055e-015 6.36111e-015 7.65035 3.43977 17.7636 46.9175 15.5693 53.7321 2.86229 2.79902 -10.7784 36.3063 13.6177 -21.761 1.67364e-006 2.14923e-006 -1.73509e-006 3.18055e-015 0 -0 1.67364e-006 2.14923e-006 -1.73509e-006 3.18055e-015 0 7.95139e-016 1.67364e-006 2.14923e-006 -1.73509e-006 4.41391e-032 3.18055e-015 -7.95139e-016 1.67364e-006 2.14923e-006 -1.73509e-006 1.67364e-006 2.14923e-006 -1.73509e-006 4.41391e-032 3.18055e-015 -7.95139e-016 1.67364e-006 2.14923e-006 -1.73509e-006 3.18055e-015 0 7.95139e-016 1.67364e-006 2.14923e-006 -1.73509e-006 4.41391e-032 3.18055e-015 -7.95139e-016 1.67364e-006 2.14923e-006 -1.73509e-006 1.67364e-006 2.14923e-006 -1.73509e-006 4.41391e-032 3.18055e-015 -7.95139e-016 1.67364e-006 2.14923e-006 -1.73509e-006 49.7048 -43.6497 23.7792 178.766 44.9006 -168.889 6.21226 12.799 5.88546 -63.3581 -41.3578 -34.451 -178.812 50.6481 170.417 -5.08609 29.4732 -4.25006 
17.1894 -7.17368 6.35177 -180 -64.9956 -180 0 20.7994 -0 0 41.5988 -0 0 41.5988 -0 0 30.9998 -0 -0 -37.8835 -0 0 3.39935e-006 -0 -74.353 0.227803 10.7524 -0.60133 -1.41207 -65.1954 23.4734 -8.8385 2.27096 3.18055e-015 -4.77083e-015 3.18055e-015 -0 -3.18055e-015 -0 -0 -3.18055e-015 -0 6.36111e-015 1.59028e-015 -0 -3.18055e-015 -7.95139e-015 3.18055e-015 -3.18055e-015 -4.77083e-015 6.36111e-015 3.53113e-031 -3.18055e-015 6.36111e-015 -3.18055e-015 -7.95139e-015 3.18055e-015 -3.18055e-015 -4.77083e-015 6.36111e-015 3.53113e-031 -3.18055e-015 6.36111e-015 6.36111e-015 1.59028e-015 -0 -3.18055e-015 -7.95139e-015 3.18055e-015 -3.18055e-015 -4.77083e-015 6.36111e-015 3.53113e-031 -3.18055e-015 6.36111e-015 -3.18055e-015 -7.95139e-015 3.18055e-015 -3.18055e-015 -4.77083e-015 6.36111e-015 3.53113e-031 -3.18055e-015 6.36111e-015 7.34548 3.29881 17.7404 46.8254 15.4063 54.0771 2.8623 2.79902 -10.7784 34.9266 12.0823 -20.668 1.32417e-031 3.18055e-015 -2.38542e-015 0 3.18055e-015 -0 0 3.18055e-015 -0 0 0 -1.59028e-015 -3.18055e-015 3.18055e-015 -7.95139e-016 0 3.18055e-015 -0 0 3.18055e-015 -0 -3.18055e-015 3.18055e-015 -7.95139e-016 0 3.18055e-015 -0 0 3.18055e-015 -0 0 0 -1.59028e-015 -3.18055e-015 3.18055e-015 -7.95139e-016 0 3.18055e-015 -0 0 3.18055e-015 -0 -3.18055e-015 3.18055e-015 -7.95139e-016 0 3.18055e-015 -0 0 3.18055e-015 -0 48.5655 -43.3327 22.3632 178.775 46.0383 -169.135 6.21033 12.515 5.72843 -61.7208 -41.1844 -32.6337 -178.804 51.5295 170.459 -5.17716 29.2952 -4.18822 
17.1702 -7.15351 5.82732 -180 -64.9956 -180 0 20.7994 -0 0 41.5988 -0 0 41.5988 -0 0 30.9998 -0 -0 -38.849 -0 0 3.39935e-006 -0 -74.353 0.227803 10.7524 -0.60133 -1.41207 -65.1954 23.4734 -8.8385 2.27096 3.18055e-015 -4.77083e-015 3.18055e-015 -0 -3.18055e-015 -0 -0 -3.18055e-015 -0 6.36111e-015 1.59028e-015 -0 -3.18055e-015 -7.95139e-015 3.18055e-015 -3.18055e-015 -4.77083e-015 6.36111e-015 3.53113e-031 -3.18055e-015 6.36111e-015 -3.18055e-015 -7.95139e-015 3.18055e-015 -3.18055e-015 -4.77083e-015 6.36111e-015 3.53113e-031 -3.18055e-015 6.36111e-015 6.36111e-015 1.59028e-015 -0 -3.18055e-015 -7.95139e-015 3.18055e-015 -3.18055e-015 -4.77083e-015 6.36111e-015 3.53113e-031 -3.18055e-015 6.36111e-015 -3.18055e-015 -7.95139e-015 3.18055e-015 -3.18055e-015 -4.77083e-015 6.36111e-015 3.53113e-031 -3.18055e-015 6.36111e-015 7.04058 3.15797 17.7166 46.7343 15.2426 54.4216 2.86228 2.79902 -10.7784 33.5804 10.5175 -19.6158 -2.78634e-007 -1.09993e-006 -6.03205e-006 3.61503e-006 5.49574e-006 2.51628e-006 -1.94683e-006 -3.29783e-006 -4.27416e-006 3.18055e-015 -3.18055e-015 -0 -2.78634e-007 -1.09993e-006 -6.03205e-006 3.61503e-006 5.49574e-006 2.51628e-006 -1.94683e-006 -3.29783e-006 -4.27416e-006 -2.78634e-007 -1.09993e-006 -6.03205e-006 3.61503e-006 5.49574e-006 2.51628e-006 -1.94683e-006 -3.29783e-006 -4.27416e-006 3.18055e-015 -3.18055e-015 -0 -2.78634e-007 -1.09993e-006 -6.03205e-006 3.61503e-006 5.49574e-006 2.51628e-006 -1.94683e-006 -3.29783e-006 -4.27416e-006 -2.78634e-007 -1.09993e-006 -6.03205e-006 3.61503e-006 5.49574e-006 2.51628e-006 -1.94683e-006 -3.29783e-006 -4.27416e-006 47.4452 -43.0208 20.982 178.79 47.174 -169.368 6.21108 12.2465 5.57885 -60.2349 -40.876 -30.9212 -178.651 52.4545 170.493 -5.26841 29.1313 -4.12839 
